HIERARCHY
ROOT Hips
{
	OFFSET 0.000000 0.000000 0.000000 
	CHANNELS 6 Xposition Yposition Zposition Yrotation Zrotation Xrotation 
	JOINT Lumbar
	{
		OFFSET 0.000000 0.000000 0.000000 
		CHANNELS 3 Zrotation Xrotation Yrotation
		JOINT Neck
		{
			OFFSET 0.000000 0.445665 0.000000 
			CHANNELS 3 Zrotation Xrotation Yrotation
			End Site
			{
				OFFSET 0.000000 0.227535 0.000000 
			}
		}
		JOINT RightShoulder
		{
			OFFSET 0.019635 0.377685 0.194865 
			CHANNELS 3 Zrotation Xrotation Yrotation
			JOINT RightElbow
			{
				OFFSET 0.000000 -0.243375 0.000000 
				CHANNELS 2 Zrotation Yrotation
				JOINT RightWrist
				{
					OFFSET 0.000000 -0.264825 0.000000 
					CHANNELS 2 Zrotation Xrotation
					End Site
					{
						OFFSET 0.006600 -0.176220 0.000990 
					}
				}
			}
		}
		JOINT LeftShoulder
		{
			OFFSET 0.019635 0.377685 -0.194865 
			CHANNELS 3 Zrotation Xrotation Yrotation
			JOINT LeftElbow
			{
				OFFSET 0.000000 -0.243375 0.000000 
				CHANNELS 2 Zrotation Yrotation
				JOINT LeftWrist
				{
					OFFSET 0.000000 -0.264825 0.000000 
					CHANNELS 2 Zrotation Xrotation
					End Site
					{
						OFFSET 0.006600 -0.176220 -0.000990 
					}
				}
			}
		}
	}
	JOINT RightHip
	{
		OFFSET 0.052140 -0.069960 0.075570 
		CHANNELS 3 Zrotation Xrotation Yrotation
		JOINT RightKnee
		{
			OFFSET 0.000000 -0.402270 0.000000 
			CHANNELS 1 Zrotation
			JOINT RightAnkle
			{
				OFFSET 0.000000 -0.404085 0.000000 
				CHANNELS 3 Zrotation Xrotation Yrotation
				End Site
				{
					OFFSET 0.204105 -0.089430 0.008415 
				}
			}
		}
	}
	JOINT LeftHip
	{
		OFFSET 0.052140 -0.069960 -0.075570 
		CHANNELS 3 Zrotation Xrotation Yrotation
		JOINT LeftKnee
		{
			OFFSET 0.000000 -0.402270 0.000000 
			CHANNELS 1 Zrotation
			JOINT LeftAnkle
			{
				OFFSET 0.000000 -0.404085 0.000000 
				CHANNELS 3 Zrotation Xrotation Yrotation
				End Site
				{
					OFFSET 0.204105 -0.089430 -0.008415 
				}
			}
		}
	}
}
MOTION
Frames: 21
Frame Time: 0.02
0.12546 -0.58792 -0.4661 -34.07195 -81.64872 -65.62067 -0.14052 7.64298 4.30369 38.10969 -9.63068 -0.83079 107.13659 5.62335 41.67671 115.67696 135.14168 -76.92017 -10.90405 115.39827 -1.09854 -39.84859 114.21092 -117.22254 -58.10265 6.89974 125.57021 -15.7705 27.25848 -148.91173 23.88463 35.80469 17.187 120.07407 11.02854 -17.25364 -148.91171 23.87277 -35.75365 -16.97423
0.12669 -0.58661 -0.46793 -36.32983 -81.83066 -67.64029 0.18066 7.59521 4.27974 37.98617 -9.57484 -0.83079 107.64324 5.26275 42.52804 114.89071 132.05841 -73.56672 -10.20638 115.51227 -0.96537 -40.46494 113.81097 -116.73658 -57.52705 6.7935 125.64604 -15.68633 26.70032 -148.91173 23.88571 35.8054 17.18724 120.20681 10.75688 -16.63076 -148.91172 23.87571 -35.76199 -16.82598
0.12745 -0.5859 -0.46927 -38.6272 -82.00737 -69.64071 0.66444 7.47752 4.45802 38.03225 -9.49301 -0.83079 108.22331 4.66907 43.43252 113.79643 128.12049 -69.26751 -9.3339 115.50376 -1.10636 -40.7864 113.32573 -116.68115 -57.85759 6.83738 125.77326 -15.66189 26.20981 -148.91173 23.88751 35.80659 17.18763 120.32516 10.63257 -16.05331 -148.91172 23.88034 -35.77535 -16.65238
0.12838 -0.58499 -0.47079 -40.92327 -82.18856 -71.66639 1.07879 7.38968 4.53001 38.00722 -9.42323 -0.83079 108.75686 4.20175 44.2859 112.85647 124.67074 -65.51771 -8.56378 115.55734 -1.11191 -41.23848 112.86101 -116.40853 -57.73356 6.80645 125.87764 -15.62438 25.6868 -148.91173 23.88892 35.80752 17.18795 120.44422 10.4434 -15.44432 -148.91172 23.88404 -35.78595 -16.50117
0.12951 -0.58378 -0.47252 -43.16179 -82.36031 -73.63302 1.48104 7.31011 4.65395 37.95373 -9.34862 -0.83079 109.33814 3.64454 45.24849 111.84901 120.77708 -61.22753 -7.69029 115.5842 -1.13893 -41.71641 112.46192 -116.18318 -57.7086 6.79089 125.97919 -15.53151 25.17233 -148.91173 23.89059 35.80862 17.18832 120.58294 10.24344 -14.87528 -148.91173 23.88842 -35.79851 -16.30477
0.1301 -0.58335 -0.4737 -45.50236 -82.54967 -75.69241 1.94101 7.19754 4.72198 37.99746 -9.27941 -0.83079 109.8407 3.21936 45.99799 110.9138 117.61151 -57.84822 -6.99255 115.63616 -1.19784 -42.06449 111.91263 -115.98669 -57.73684 6.78528 126.09593 -15.56588 24.65451 -148.91173 23.8919 35.80947 17.1886 120.67682 10.09974 -14.23556 -148.91173 23.89178 -35.80821 -16.19526
0.12933 -0.58501 -0.47345 -48.39382 -82.80162 -78.28195 2.56423 6.9996 4.57502 38.31368 -9.23072 -0.83079 110.10506 3.23126 46.14571 110.22684 116.69431 -57.26224 -6.8304 115.80488 -1.25008 -42.14559 110.94022 -115.65843 -57.5237 6.75064 126.28157 -15.94585 24.12666 -148.91173 23.89207 35.80952 17.18859 120.67983 10.10019 -13.39735 -148.91173 23.89193 -35.80878 -16.3437
0.12804 -0.58744 -0.47268 -51.33886 -83.06925 -80.91958 3.2317 6.77259 4.36799 38.71512 -9.18883 -0.83079 110.28949 3.38201 46.07777 109.6286 116.5376 -57.62285 -6.85082 116.00073 -1.33243 -42.10162 109.82648 -115.36636 -57.36913 6.72547 126.4744 -16.4498 23.59095 -148.91173 23.89187 35.80929 17.18848 120.63385 10.14862 -12.48642 -148.91173 23.89101 -35.80632 -16.57838
0.12698 -0.58948 -0.47217 -54.0753 -83.3218 -83.35762 3.84945 6.56645 4.19686 39.04792 -9.14514 -0.83079 110.51319 3.4596 46.10953 109.00816 116.01745 -57.52474 -6.78377 116.17198 -1.42329 -42.10019 108.79761 -115.13561 -57.3119 6.71119 126.63807 -16.89053 23.04761 -148.91173 23.89184 35.80918 17.18841 120.59202 10.1587 -11.60403 -148.91173 23.89058 -35.80525 -16.76578
0.12593 -0.59171 -0.47152 -57.58068 -83.6082 -86.53548 4.59657 6.32648 3.99634 39.51006 -9.0959 -0.83079 110.72601 3.57096 46.13626 108.30136 115.54222 -57.51205 -6.72945 116.38777 -1.43295 -42.14715 107.67767 -114.60195 -56.77926 6.64015 126.91097 -17.36192 22.55087 -148.91173 23.89181 35.80911 17.18837 120.62583 10.24156 -10.74018 -148.91173 23.89017 -35.80424 -16.9861
0.12473 -0.59374 -0.47105 -59.50936 -83.82728 -88.19621 5.0843 6.14982 3.84018 39.72427 -9.0591 -0.83079 110.94267 3.64861 46.12117 107.79829 115.16537 -57.56039 -6.69434 116.52253 -1.61123 -42.06979 106.71597 -114.68853 -57.2172 6.68473 126.95967 -17.79876 21.95813 -148.91173 23.89168 35.80889 17.18824 120.49092 10.18499 -9.82232 -148.91173 23.88947 -35.80238 -17.15909
0.12328 -0.59492 -0.4713 -56.96098 -83.86188 -85.55063 4.82937 6.16526 3.82028 39.20403 -9.06481 -0.83079 111.18013 3.59566 46.04641 107.84793 114.87951 -57.53822 -6.66832 116.39679 -2.28281 -41.65995 106.21767 -116.59489 -60.50498 7.07108 126.36754 -18.10447 21.07 -148.91173 23.89132 35.80822 17.18782 119.89936 9.70865 -8.75294 -148.91172 23.88809 -35.79848 -17.17673
0.12169 -0.59588 -0.47174 -52.8439 -83.82725 -81.39592 4.31388 6.24384 3.84609 38.43657 -9.08122 -0.83079 111.42567 3.506 45.936 108.09837 114.67048 -57.55135 -6.65621 116.19542 -3.11483 -41.13429 105.88501 -119.09905 -64.72623 7.56794 125.55281 -18.37216 20.09172 -148.91173 23.89087 35.80742 17.18731 119.13981 9.09428 -7.63573 -148.91172 23.88648 -35.79387 -17.14451
0.12012 -0.59701 -0.47206 -49.51772 -83.82089 -78.00187 3.92715 6.28723 3.85081 37.79967 -9.08632 -0.83079 111.67322 3.4365 45.8399 108.25129 114.42623 -57.55776 -6.63803 116.04824 -3.84957 -40.6763 105.48291 -121.25326 -68.39833 7.99743 124.85308 -18.66007 19.17484 -148.91173 23.89049 35.80672 17.18687 118.45968 8.55694 -6.55284 -148.91172 23.88508 -35.78986 -17.13762
0.11869 -0.59788 -0.47253 -45.86619 -83.82852 -74.29542 3.49866 6.35712 3.85564 37.08634 -9.11849 -0.83079 111.89379 3.3564 45.7451 108.4356 114.20639 -57.55613 -6.6246 115.81571 -4.68992 -40.15099 105.05311 -123.74541 -72.61102 8.50042 124.09601 -18.9386 18.16933 -148.91173 23.89 35.80583 17.18631 117.76688 7.95936 -5.41242 -148.91171 23.88324 -35.78463 -17.12257
0.11696 -0.59923 -0.47272 -42.51652 -83.7904 -70.87832 3.09434 6.38704 3.87093 36.47568 -9.09721 -0.83079 112.17382 3.28865 45.64094 108.59853 113.94775 -57.56877 -6.6028 115.74584 -5.34608 -39.73917 104.71978 -125.66765 -75.90532 8.87554 123.40441 -19.22771 17.32981 -148.91173 23.88971 35.8053 17.18598 117.05866 7.45585 -4.38378 -148.91171 23.88224 -35.78175 -17.11139
0.11448 -0.60191 -0.4721 -40.40502 -83.64229 -68.64846 2.82277 6.29288 3.91172 36.17923 -8.92197 -0.83079 112.61225 3.25789 45.52873 108.67651 113.53296 -57.60265 -6.5495 116.11403 -5.4717 -39.67718 104.63477 -125.9398 -76.55684 8.87894 122.95641 -19.54114 16.94844 -148.91173 23.89002 35.80583 17.18629 116.37102 7.2288 -3.65618 -148.91172 23.88379 -35.78604 -17.12416
0.11171 -0.60507 -0.47119 -38.64681 -83.45048 -66.75782 2.58391 6.15638 3.96014 35.99922 -8.69355 -0.83079 113.11029 3.24177 45.40759 108.7221 113.08032 -57.65028 -6.48778 116.65216 -5.40425 -39.73204 104.6384 -125.60949 -76.23631 8.74908 122.58022 -19.86925 16.74193 -148.91173 23.89054 35.80672 17.18683 115.66978 7.10441 -3.04708 -148.91172 23.88616 -35.79265 -17.14191
0.10908 -0.60803 -0.47039 -36.71351 -83.27909 -64.69948 2.32825 6.03797 4.00039 35.7857 -8.49148 -0.83079 113.58529 3.22165 45.28581 108.76584 112.65863 -57.68875 -6.43171 117.13406 -5.41206 -39.72943 104.58645 -125.50253 -76.27117 8.67352 122.16587 -20.19847 16.46937 -148.91173 23.89095 35.80742 17.18724 114.9606 6.94358 -2.39625 -148.91172 23.88802 -35.79786 -17.15623
0.1064 -0.61092 -0.46966 -34.78879 -83.10324 -62.64672 2.07139 5.92563 4.06258 35.48391 -8.27928 -0.83079 114.0478 3.18716 45.18302 108.88324 112.17414 -57.727 -6.3667 117.53198 -5.47306 -39.74327 104.60167 -125.60878 -76.67249 8.62466 121.76778 -20.49081 16.13496 -148.91173 23.89142 35.80824 17.18773 114.30521 6.73366 -1.69088 -148.91173 23.89041 -35.80445 -17.17377
0.10376 -0.61408 -0.46874 -32.94813 -82.92679 -60.68123 1.82857 5.79097 4.07962 35.39404 -8.07705 -0.83079 114.54489 3.18904 45.0384 108.84109 111.8203 -57.7864 -6.32044 118.137 -5.38176 -39.74941 104.49979 -125.14595 -76.10609 8.49163 121.3549 -20.8674 15.97464 -148.91173 23.89181 35.8089 17.18812 113.53666 6.65363 -1.12996 -148.91173 23.89193 -35.80878 -17.18647
